<svg width="8" height="8" viewBox="0 0 8 8" fill="current" xmlns="http://www.w3.org/2000/svg">
    <path fill-rule="evenodd" clip-rule="evenodd"
        d="M4 4.45968L5.98 2.47968C6.07434 2.38865 6.20067 2.33831 6.33177 2.33951C6.46287 2.34071 6.58825 2.39335 6.68091 2.4861C6.77357 2.57885 6.8261 2.70428 6.82717 2.83538C6.82825 2.96648 6.77779 3.09276 6.68667 3.18702L4.35333 5.52035C4.25958 5.61398 4.1325 5.66658 4 5.66658C3.8675 5.66658 3.74042 5.61398 3.64667 5.52035L1.31333 3.18702C1.26556 3.14091 1.22744 3.08576 1.20121 3.02477C1.17498 2.96378 1.16115 2.89818 1.16054 2.83179C1.15994 2.7654 1.17256 2.69955 1.19767 2.63809C1.22278 2.57663 1.25988 2.52079 1.3068 2.47382C1.35373 2.42685 1.40953 2.3897 1.47097 2.36453C1.53241 2.33936 1.59824 2.32668 1.66463 2.32723C1.73102 2.32777 1.79664 2.34153 1.85765 2.36771C1.91866 2.39388 1.97385 2.43195 2.02 2.47968L4 4.46002V4.45968Z"
        fill="current" />
</svg>
    