<svg width="12" height="12" viewBox="0 0 12 12" fill="current" xmlns="http://www.w3.org/2000/svg">
    <path fill-rule="evenodd" clip-rule="evenodd"
        d="M5.99994 6.68949L8.96994 3.71949C9.11146 3.58294 9.30094 3.50743 9.49759 3.50923C9.69424 3.51103 9.88231 3.59 10.0213 3.72912C10.1603 3.86824 10.2391 4.05639 10.2407 4.25304C10.2423 4.44969 10.1666 4.63911 10.0299 4.78049L6.52994 8.28049C6.38931 8.42094 6.19869 8.49983 5.99994 8.49983C5.80119 8.49983 5.61056 8.42094 5.46994 8.28049L1.96994 4.78049C1.89828 4.71134 1.8411 4.62861 1.80175 4.53712C1.7624 4.44564 1.74167 4.34724 1.74075 4.24765C1.73984 4.14807 1.75877 4.0493 1.79644 3.95711C1.83411 3.86492 1.88976 3.78116 1.96014 3.7107C2.03053 3.64025 2.11424 3.58452 2.2064 3.54677C2.29855 3.50901 2.3973 3.48999 2.49688 3.49081C2.59647 3.49163 2.69489 3.51227 2.78641 3.55153C2.87794 3.5908 2.96072 3.64789 3.02994 3.71949L5.99994 6.68999V6.68949Z"
        fill="current" />
</svg>
    