<svg width="190" height="40" viewBox="0 0 190 40" fill="none" xmlns="http://www.w3.org/2000/svg">
    <g clip-path="url(#clip0_987_1416)">
        <mask id="mask0_987_1416" style="mask-type:alpha" maskUnits="userSpaceOnUse" x="117" y="0"
            width="73" height="40">
            <path
                d="M181.667 0H126.163C121.56 0 117.829 3.73096 117.829 8.33333V31.6667C117.829 36.269 121.56 40 126.163 40H181.667C186.269 40 190 36.269 190 31.6667V8.33333C190 3.73096 186.269 0 181.667 0Z"
                fill="#D9D9D9" />
        </mask>
        <g mask="url(#mask0_987_1416)">
            <g filter="url(#filter0_f_987_1416)">
                <path
                    d="M216.463 0H91.3662C86.7638 0 83.0328 3.73097 83.0328 8.33333V31.6667C83.0328 36.269 86.7638 40 91.3662 40H216.463C221.065 40 224.797 36.269 224.797 31.6667V8.33333C224.797 3.73097 221.065 0 216.463 0Z"
                    fill="#FFA700" />
                <path
                    d="M192.205 0C193.725 0 194.955 1.19432 195.303 2.67255C195.478 3.41613 195.722 4.21537 196.058 5.05893C196.337 5.7529 196.993 7.27075 198.338 9.19512C200.598 12.43 201.79 12.5048 203.952 15.2351C205.162 16.7628 207.717 20.0862 207.268 24.3007C207.165 25.2717 207.057 26.5638 206.015 28.1213C204.847 29.8687 203.062 31.152 201.782 32.072C200.61 32.9157 200.628 32.7643 198.295 34.3465C195.522 36.2253 194.97 36.7937 194.6 37.3602C194.562 37.4195 194.525 37.4787 194.492 37.5375C193.812 38.6978 192.802 40.0002 191.457 40.0002C190.672 40.0002 189.905 39.5928 189.67 38.8437C189.367 37.8725 189.367 36.7367 190.308 35.6818C191.598 34.2342 193.732 33.9818 196.638 32.4153C199.945 30.6332 201.415 28.6807 202.01 27.8683C202.592 27.0735 205.337 23.3215 202.86 19.4092C201.875 17.8543 201.222 18.099 198.167 15.2351C194.865 12.1406 193.133 9.51523 192.053 7.85485C191.263 6.6371 190.452 5.23258 189.713 3.65663C188.888 1.89598 190.262 0 192.205 0Z"
                    fill="#FF0054" />
                <path
                    d="M157.536 -0.0764135C157.536 -0.0764258 157.536 -0.0763991 157.536 -0.0764135C156.53 1.59656 155.285 4.50641 156.436 7.92391C156.744 8.83962 157.325 10.4848 159.256 12.309C160.996 13.952 163.085 15.0356 164.892 15.9728C166.61 16.8638 166.983 16.9078 169.427 18.0443C171.76 19.131 174.367 20.3437 176.532 21.7668C179.812 23.9213 181.288 26.0425 182.11 27.2478C184.09 30.1508 185.648 32.4343 183.857 34.5475C182.893 35.683 180.84 36.9143 179.778 37.3665C179.63 37.43 178.44 37.9292 176.768 38.5497C176.725 38.566 176.687 38.5797 176.657 38.591C175.038 39.1882 173.633 39.6455 172.605 39.9648C172.53 39.9882 172.452 39.9998 172.373 39.9998C171.502 39.9998 171.23 38.6773 172.005 38.2787C172.34 38.1062 172.643 37.943 172.917 37.792C174.272 37.0402 175.485 36.3727 176.612 35.3083C177.042 34.9008 178.172 33.8137 178.655 32.4323C179.525 29.9462 177.823 27.8748 176.375 26.1143C175.84 25.4633 174.25 23.6372 171.03 21.6262C167.805 19.613 166.913 19.8907 162.146 17.356C156.802 14.5156 155.287 12.7664 154.907 12.3089C153.758 10.9266 153.373 9.79192 153.026 8.72846C152.509 7.14762 152.039 4.7281 152.701 1.67175C152.93 0.610957 153.917 -0.0764923 155.002 -0.0764923L157.536 -0.0764135Z"
                    fill="#FF0056" />
                <path
                    d="M153.187 -0.0763121C153.187 -0.0763428 153.187 -0.0763444 153.187 -0.0763121C151.867 3.81052 152.415 6.85705 153.026 8.72846C153.373 9.79193 153.758 10.9266 154.907 12.3089C155.287 12.7664 156.802 14.5156 162.146 17.356C166.913 19.8907 167.805 19.613 171.03 21.6262C174.25 23.6372 175.84 25.4633 176.375 26.1143C177.823 27.8748 179.525 29.9462 178.655 32.4323C178.172 33.8137 177.042 34.9008 176.612 35.3083C175.485 36.3727 174.273 37.0402 172.917 37.792C171.857 38.3795 170.327 39.15 168.295 39.9413C168.195 39.9802 168.088 39.9998 167.982 39.9998C167.02 39.9998 166.71 38.539 167.557 38.0833C167.738 37.9852 167.923 37.884 168.108 37.78C170.738 36.301 172.465 35.3293 173.487 33.7687C175.25 31.0713 173.67 28.496 173.035 27.4617C172.77 27.0277 172.032 25.9145 170.498 24.6793C168.923 23.4103 167.405 22.7333 165.393 21.7795C160.724 19.565 158.39 18.4578 156.356 17.1353C154.512 15.9365 152.355 14.5072 150.998 12.3091C150.249 11.0972 150.076 10.1054 149.812 8.77441C149.465 7.02155 149.154 4.67456 149.198 1.81066C149.215 0.747777 150.103 -0.0762836 151.166 -0.0762836L153.187 -0.0763121Z"
                    fill="#009CB2" />
                <path
                    d="M149.369 -0.0764923C147.156 -0.0764923 145.29 1.642 145.386 3.85342C145.471 5.80691 145.711 7.45807 145.972 8.77421C146.285 10.3566 146.594 11.2869 147.157 12.3089C148.505 14.754 150.672 16.5625 152.237 17.6578C153.842 18.7818 155.847 19.721 159.856 21.5992C162.54 22.857 164.043 23.444 166.064 24.7898C167.178 25.5318 168.303 26.2928 169.195 27.4615C169.617 28.0137 170.705 29.4837 170.455 31.278C170.118 33.7022 167.528 35.3702 164.419 37.3725C163.885 37.716 163.36 38.0322 162.856 38.3212C162.109 38.749 162.4 39.9998 163.261 39.9998C163.362 39.9998 163.462 39.9808 163.556 39.9433C164.786 39.4515 166.4 38.7405 168.108 37.7798C170.738 36.301 172.465 35.3292 173.487 33.7687C175.25 31.0713 173.67 28.4958 173.035 27.4615C172.77 27.0275 172.032 25.9143 170.498 24.6792C168.923 23.4102 167.405 22.7332 165.394 21.7793C160.725 19.5648 158.39 18.4578 156.356 17.1352C154.512 15.9364 152.355 14.5071 150.998 12.309C150.249 11.0971 150.076 10.1053 149.812 8.7743C149.392 6.65049 149.023 3.65449 149.278 -0.0763916"
                    fill="#FF8800" />
                <path
                    d="M159.774 39.9998C158.628 39.9998 158.241 38.1477 159.233 37.5742C159.348 37.5082 159.462 37.4408 159.577 37.3725C162.161 35.8273 165.228 33.994 165.614 31.278C165.696 30.6947 165.79 29.1247 164.353 27.4615C163.342 26.2913 161.968 25.531 160.655 24.805C159.131 23.9618 158.04 23.561 156.532 22.9323C153.574 21.6992 150.724 20.5152 148.221 18.81C145.294 16.8155 144.013 14.9084 143.707 14.4336C142.478 12.5237 142.436 11.1056 142.256 8.73217C142.137 7.16174 141.943 4.97227 141.608 2.24944C141.462 1.05923 142.383 -0.000191493 143.583 -0.000191493H145.356C145.399 -0.000191493 145.434 -0.0335546 145.437 -0.0764923C145.183 3.65449 145.552 6.65049 145.972 8.77421C146.285 10.3566 146.594 11.2869 147.157 12.3089C148.505 14.754 150.672 16.5625 152.237 17.6578C153.842 18.7818 155.847 19.721 159.856 21.5992C162.541 22.857 164.043 23.444 166.064 24.7898C167.178 25.5318 168.303 26.2928 169.195 27.4615C169.617 28.0137 170.705 29.4837 170.455 31.278C170.12 33.7022 167.528 35.3702 164.419 37.3725C162.531 38.5882 160.755 39.4613 159.574 39.9998"
                    fill="#00BFBA" />
                <path
                    d="M139.711 37.0535C140.704 38.2605 139.807 40.0002 138.244 40.0002H111.454C108.513 40.0002 105.848 38.3997 103.996 36.1157C103.964 36.076 103.932 36.0373 103.901 35.9992C103.49 35.4963 99.969 31.2208 99.8515 29.169C99.802 28.3058 100.352 27.7788 100.471 27.6692C100.574 27.5742 100.902 27.2883 101.645 26.9645C102.893 26.4202 104.307 26.208 105.451 26.1193C107.214 25.983 108.225 26.1553 111.269 26.4397C111.838 26.4928 112.352 26.5328 113.95 26.6655C115.596 26.8023 116.034 26.835 116.443 26.8697L116.448 26.8702C116.534 26.8777 121.746 27.3335 126.476 28.6018C126.566 28.626 126.642 28.6467 126.703 28.6635C127.041 28.7567 127.444 28.8578 127.927 29.0188C128.971 29.3663 133.161 30.7093 136.55 33.5828C137.56 34.4393 138.277 35.3107 139.711 37.0535Z"
                    fill="#00BFBD" />
                <path
                    d="M137.223 3.55348C136.899 1.38936 134.887 0 132.699 0H115.294C112.654 0 111.337 3.80208 112.395 6.22028C115.202 12.6352 109.378 17.5037 114.489 20.4283C115.433 20.9688 116.868 21.3977 119.736 22.2552C124.124 23.5672 126.278 23.7137 129.021 24.4127C134.668 25.852 137.903 28.3823 139.751 29.8287C144.477 33.5255 144.112 36.2018 148.099 36.829C150.317 37.1777 152.447 36.6673 153.497 36.4158C153.962 36.3043 158.221 35.236 159.416 32.5932C160.327 30.5783 158.867 28.9552 158.461 28.5203C157.698 27.7047 156.628 27.1727 154.517 26.1418C153.907 25.8437 151.825 24.8425 145.666 22.5535C142.989 21.5583 142.847 21.5487 142.294 21.2298C141.644 20.855 140.126 19.8798 138.767 16.994C137.985 15.3351 137.709 14.0074 137.591 13.3692C136.81 9.15408 137.824 7.55963 137.223 3.55348Z"
                    fill="#8E5B9C" />
                <path
                    d="M131.22 3.55565C131.329 1.38051 129.192 0 127.015 0H122.598C119.526 0 118.016 3.7471 120.221 5.88545C123.525 9.08978 124.875 10.4242 126.496 10.3417C128.269 10.2515 129.324 8.51858 130.019 7.37548C130.533 6.53133 131.136 5.2414 131.22 3.55565Z"
                    fill="#00CBC1" />
                <path
                    d="M125.163 31.8928C131.282 33.6128 128.545 40.0002 122.189 40.0002H113.944C111.482 40.0002 108.973 38.675 108.765 36.2213C108.607 34.3672 108.5 33.1047 109.695 32.1828C112.127 30.3063 118.897 30.6573 122.725 31.3375C123.586 31.4905 124.398 31.6778 125.163 31.8928Z"
                    fill="#FF8800" />
                <path
                    d="M129.571 37.6112C130.73 38.4322 130.05 40.0002 128.629 40.0002H117.832C115.115 40.0002 112.299 37.7505 114.346 35.9628C114.895 35.4832 115.605 35.0873 116.45 34.8112C119.815 33.7102 123.958 34.9475 124.971 35.25C127.158 35.9032 128.508 36.8587 129.571 37.6112Z"
                    fill="#009DB4" />
                <path
                    d="M120.946 39.0875C120.162 39.2177 120.358 40 121.153 40H121.939C123.049 40 123.233 39.012 122.123 38.9998C121.725 38.9955 121.328 39.024 120.946 39.0875Z"
                    fill="#FF0058" />
                <path
                    d="M184.358 3.4317C183.112 1.15995 180.583 0 177.992 0H166.75C164.066 0 161.296 1.22289 160.583 3.81128C160.01 5.89428 160.103 8.43937 162.512 10.6446C164.168 12.1604 167.408 13.9648 171.052 15.2265C173.523 16.0829 175.148 16.3314 178.122 17.6325C179.805 18.3695 181.605 19.1568 183.23 20.4623C183.758 20.8868 184.86 22.2815 187.042 25.0533C187.887 26.127 188.927 27.4612 191.175 28.098C191.832 28.2842 192.322 28.334 192.712 28.3413C194.97 28.3845 196.598 27.065 196.885 26.8318C198.965 25.1467 198.022 23.0512 197.755 22.461C197.182 21.1875 196.118 20.36 194.427 19.0432C192.147 17.2673 190.805 16.9003 189.488 15.2869C188.912 14.579 188.665 14.0305 188.292 13.1466C186.798 9.6 186.078 7.28618 185.47 5.77235C185.208 5.12142 184.853 4.33318 184.358 3.4317Z"
                    fill="#FF0047" />
                <path
                    d="M179.833 6.92421C180.05 8.93213 177.958 11.4832 174.673 11.7446C171.445 12.0014 168.723 9.91708 168.005 9.36654C167.347 8.86218 165.912 7.76433 165.917 6.21724C165.924 4.30639 168.123 2.03481 171.135 1.84672C172.823 1.74139 174.195 2.32629 175.457 2.86494C176.332 3.23869 179.585 4.62681 179.833 6.92421Z"
                    fill="#009BB3" />
            </g>
        </g>
        <path
            d="M39.6835 13.569C38.1608 11.8767 36.037 10.8293 33.5125 10.8293C27.9025 10.8293 23.6552 15.4627 23.6552 21.5872C23.6552 27.7115 27.9025 32.345 33.5125 32.345C36.0357 32.345 38.1477 31.298 39.6835 29.5718V32.345H45.5337V31.8527V24.5287V11.313H39.6835V13.569ZM34.6747 26.6635C31.8295 26.6635 29.706 24.4878 29.706 21.5868C29.706 18.6858 31.8298 16.5101 34.6747 16.5101C37.5597 16.5101 39.6835 18.6858 39.6835 21.5868C39.6835 24.4878 37.5597 26.6635 34.6747 26.6635Z"
            fill="#343537" />
        <path
            d="M57.8355 19.2097C55.1907 18.6052 54.029 17.9607 54.029 16.9938C54.029 16.1478 54.9905 15.5029 56.0723 15.5029C57.3145 15.5029 58.2763 16.3087 58.2763 17.2758H64.1265C64.1265 13.6898 60.7205 10.8293 56.0723 10.8293C51.9052 10.8293 48.2187 13.1261 48.2187 17.397C48.2187 20.7007 50.5025 22.9168 54.9103 23.8435C57.3943 24.3268 58.5967 25.0522 58.5967 26.0593C58.5967 27.0667 57.4748 27.6712 56.3125 27.6712C54.87 27.6712 53.7478 26.7442 53.7478 25.6162H47.8977C47.8977 29.323 51.3838 32.3447 56.2723 32.3447C60.68 32.3447 64.4063 29.887 64.4063 25.5355C64.407 22.272 62.2835 20.217 57.8355 19.2097Z"
            fill="#343537" />
        <path
            d="M74.0252 5.91309H68.4955V9.61992C68.4955 10.7479 67.9347 11.3119 66.8125 11.3119H65.0895V16.6707H68.1748V25.1722C68.1748 29.5638 70.6593 31.8607 75.5478 31.8607H78.4727V26.5018H76.429C74.9063 26.5018 74.0248 25.6558 74.0248 24.205V16.6707H78.4727V11.3119H74.0248L74.0252 5.91309Z"
            fill="#343537" />
        <path
            d="M86.6472 14.2139V11.3129H80.7968V31.8615H86.6472V22.2722C86.6472 19.0892 88.8512 17.0342 92.818 17.0342V10.9904C90.3337 10.9904 88.2102 12.1994 86.6472 14.2139Z"
            fill="#343537" />
        <path
            d="M104.399 10.8289C98.1078 10.8289 93.3795 15.4623 93.3795 21.5867C93.3795 27.7112 98.1078 32.3447 104.399 32.3447C110.69 32.3447 115.418 27.7112 115.418 21.5867C115.418 15.4627 110.69 10.8289 104.399 10.8289ZM104.399 26.6635C101.514 26.6635 99.39 24.4877 99.39 21.5867C99.39 18.6858 101.514 16.51 104.399 16.51C107.284 16.51 109.408 18.6858 109.408 21.5867C109.408 24.4877 107.284 26.6635 104.399 26.6635Z"
            fill="#343537" />
        <path
            d="M181.222 11.3122V13.5686C179.703 11.8763 177.587 10.8289 175.068 10.8289C169.475 10.8289 165.241 15.4623 165.241 21.5867C165.241 27.7112 169.475 32.3447 175.068 32.3447C177.585 32.3447 179.69 31.2975 181.222 29.5713V32.3447H187.055V31.8523V24.5282V11.3126L181.222 11.3122ZM176.228 26.6635C173.392 26.6635 171.273 24.4877 171.273 21.5867C171.273 18.6858 173.392 16.51 176.228 16.51C179.103 16.51 181.222 18.6858 181.222 21.5867C181.222 24.4877 179.103 26.6635 176.228 26.6635Z"
            fill="white" />
        <path
            d="M152.976 24.5283V18.4443C152.976 13.851 150.019 10.8293 145.585 10.8293C142.708 10.8293 140.391 12.0382 138.833 14.3749C137.594 12.1587 135.317 10.8293 132.401 10.8293C130.044 10.8293 128.086 11.7559 126.608 13.4887V11.313H120.775V31.8617H126.608V20.2978C126.608 18.0415 128.166 16.5105 130.443 16.5105C132.561 16.5105 133.959 18.001 133.959 20.2173V31.8617H139.792V20.2978C139.792 18.0415 141.35 16.5105 143.627 16.5105C145.744 16.5105 147.142 18.001 147.142 20.2173V25.8178C147.142 29.8067 149.26 31.8617 153.375 31.8617H155.013V26.1805H154.613C153.575 26.1802 152.976 25.5757 152.976 24.5283Z"
            fill="white" />
        <path
            d="M160.127 1.48152C158.09 1.48152 156.532 3.01263 156.532 5.06726C156.532 7.16238 158.09 8.69348 160.127 8.69348C162.205 8.69348 163.763 7.16238 163.763 5.06726C163.763 3.01263 162.205 1.48152 160.127 1.48152Z"
            fill="white" />
        <path d="M163.044 11.3123H157.211V31.861H163.044V11.3123Z" fill="white" />
        <path
            d="M9.31563 10.8289V10.8431C3.94052 11.1192 0 15.4922 0 21.2242C0 27.1468 4.20743 31.6595 9.8574 31.6595C12.3818 31.6595 14.5056 30.6523 16.0283 28.96V29.6045C16.0283 32.6267 14.1849 34.6412 11.3402 34.6412C9.45685 34.6412 7.85398 33.9158 7.13272 32.7473H1.08222C2.36438 37.22 6.09108 39.9998 11.3402 39.9998C17.6712 39.9998 21.8785 35.8902 21.8785 29.645V14.0493V11.3122V10.8289H9.31563ZM11.0191 26.3008C8.1341 26.3008 6.01025 24.1252 6.01025 21.2242C6.01025 18.3633 8.1341 16.1474 11.0191 16.1474C13.9041 16.1474 16.028 18.3633 16.028 21.2242C16.028 24.1252 13.9045 26.3008 11.0191 26.3008Z"
            fill="#343537" />
    </g>
    <defs>
        <filter id="filter0_f_987_1416" x="81.0328" y="-2.07649" width="145.764" height="44.0767"
            filterUnits="userSpaceOnUse" color-interpolation-filters="sRGB">
            <feFlood flood-opacity="0" result="BackgroundImageFix" />
            <feBlend mode="normal" in="SourceGraphic" in2="BackgroundImageFix" result="shape" />
            <feGaussianBlur stdDeviation="1" result="effect1_foregroundBlur_987_1416" />
        </filter>
        <clipPath id="clip0_987_1416">
            <rect width="190" height="40" fill="white" />
        </clipPath>
    </defs>
</svg>
    