<svg width="114" height="24" viewBox="0 0 114 24" fill="none" xmlns="http://www.w3.org/2000/svg">
    <g clip-path="url(#clip0_991_1395)">
        <mask id="mask0_991_1395" style="mask-type:alpha" maskUnits="userSpaceOnUse" x="70" y="0"
            width="44" height="24">
            <path
                d="M109 0H75.6977C72.9363 0 70.6977 2.23858 70.6977 5V19C70.6977 21.7614 72.9363 24 75.6977 24H109C111.761 24 114 21.7614 114 19V5C114 2.23858 111.761 0 109 0Z"
                fill="#D9D9D9" />
        </mask>
        <g mask="url(#mask0_991_1395)">
            <g filter="url(#filter0_f_991_1395)">
                <path
                    d="M129.878 0H54.8197C52.0583 0 49.8197 2.23858 49.8197 5V19C49.8197 21.7614 52.0583 24 54.8197 24H129.878C132.639 24 134.878 21.7614 134.878 19V5C134.878 2.23858 132.639 0 129.878 0Z"
                    fill="#FFA700" />
                <path
                    d="M115.323 0C116.235 0 116.973 0.716593 117.182 1.60353C117.287 2.04968 117.433 2.52922 117.635 3.03536C117.802 3.45174 118.196 4.36245 119.003 5.51707C120.359 7.45799 121.074 7.50286 122.371 9.14105C123.097 10.0577 124.63 12.0517 124.361 14.5804C124.299 15.163 124.234 15.9383 123.609 16.8728C122.908 17.9212 121.837 18.6912 121.069 19.2432C120.366 19.7494 120.377 19.6586 118.977 20.6079C117.313 21.7352 116.982 22.0762 116.76 22.4161C116.737 22.4517 116.715 22.4872 116.695 22.5225C116.287 23.2187 115.681 24.0001 114.874 24.0001C114.403 24.0001 113.943 23.7557 113.802 23.3062C113.62 22.7235 113.62 22.042 114.185 21.4091C114.959 20.5405 116.239 20.3891 117.983 19.4492C119.967 18.3799 120.849 17.2084 121.206 16.721C121.555 16.2441 123.202 13.9929 121.716 11.6455C121.125 10.7126 120.733 10.8594 118.9 9.14105C116.919 7.28436 115.88 5.70914 115.232 4.71291C114.758 3.98226 114.271 3.13955 113.828 2.19398C113.333 1.13759 114.157 0 115.323 0Z"
                    fill="#FF0054" />
                <path
                    d="M94.5216 -0.0458511C94.5216 -0.0458585 94.5216 -0.0458425 94.5216 -0.0458511C93.9182 0.957936 93.1711 2.70384 93.8614 4.75434C94.0463 5.30377 94.3947 6.29086 95.5538 7.38542C96.5974 8.37119 97.8511 9.02137 98.935 9.58367C99.9658 10.1183 100.19 10.1447 101.656 10.8266C103.056 11.4786 104.62 12.2062 105.919 13.0601C107.887 14.3528 108.773 15.6255 109.266 16.3487C110.454 18.0905 111.389 19.4606 110.314 20.7285C109.736 21.4098 108.504 22.1486 107.867 22.4199C107.778 22.458 107.064 22.7575 106.061 23.1298C106.035 23.1396 106.012 23.1478 105.994 23.1546C105.023 23.5129 104.18 23.7873 103.563 23.9789C103.518 23.9929 103.471 23.9999 103.424 23.9999C102.901 23.9999 102.738 23.2064 103.203 22.9672C103.404 22.8637 103.586 22.7658 103.75 22.6752C104.563 22.2241 105.291 21.8236 105.967 21.185C106.225 20.9405 106.903 20.2882 107.193 19.4594C107.715 17.9677 106.694 16.7249 105.825 15.6686C105.504 15.278 104.55 14.1823 102.618 12.9757C100.683 11.7678 100.148 11.9344 97.2873 10.4136C94.0811 8.70937 93.1722 7.65986 92.9442 7.38536C92.2548 6.55593 92.0239 5.87515 91.8155 5.23707C91.5057 4.28857 91.2232 2.83686 91.6203 1.00305C91.7582 0.366571 92.3502 -0.0458984 93.0014 -0.0458984L94.5216 -0.0458511Z"
                    fill="#FF0056" />
                <path
                    d="M91.9122 -0.0458208C91.9122 -0.0458392 91.9122 -0.0458402 91.9122 -0.0458208C91.1205 2.28628 91.4488 4.11419 91.8156 5.23704C92.024 5.87512 92.2549 6.5559 92.9443 7.38533C93.1724 7.65983 94.0812 8.70934 97.2874 10.4136C100.148 11.9344 100.683 11.7678 102.618 12.9757C104.55 14.1823 105.504 15.278 105.825 15.6686C106.694 16.7249 107.715 17.9677 107.193 19.4594C106.903 20.2882 106.225 20.9405 105.967 21.185C105.291 21.8236 104.564 22.2241 103.75 22.6752C103.114 23.0277 102.196 23.49 100.977 23.9648C100.917 23.9881 100.853 23.9999 100.789 23.9999C100.212 23.9999 100.026 23.1234 100.534 22.85C100.643 22.7911 100.754 22.7304 100.865 22.668C102.443 21.7806 103.479 21.1976 104.092 20.2612C105.15 18.6428 104.202 17.0976 103.821 16.477C103.662 16.2166 103.219 15.5487 102.299 14.8076C101.354 14.0462 100.443 13.64 99.2361 13.0677C96.4347 11.739 95.0339 11.0747 93.8135 10.2812C92.707 9.56187 91.4128 8.70426 90.5985 7.38545C90.1495 6.65829 90.0454 6.0632 89.8874 5.26461C89.6793 4.21289 89.4922 2.8047 89.5189 1.08636C89.5289 0.448633 90.0616 -0.0458037 90.6995 -0.0458037L91.9122 -0.0458208Z"
                    fill="#009CB2" />
                <path
                    d="M89.6214 -0.0458984C88.2933 -0.0458984 87.1738 0.985199 87.2315 2.31205C87.2824 3.48414 87.4268 4.47484 87.5831 5.26452C87.771 6.21394 87.9562 6.77213 88.2942 7.38536C89.1031 8.8524 90.4031 9.93752 91.3419 10.5947C92.3053 11.2691 93.5079 11.8326 95.9134 12.9595C97.5242 13.7142 98.4256 14.0664 99.6383 14.8739C100.307 15.3191 100.982 15.7757 101.517 16.4769C101.77 16.8082 102.423 17.6902 102.273 18.7668C102.071 20.2213 100.517 21.2221 98.6511 22.4235C98.3309 22.6296 98.0162 22.8193 97.7133 22.9927C97.2651 23.2494 97.4402 23.9999 97.9568 23.9999C98.0173 23.9999 98.0772 23.9885 98.1335 23.966C98.8713 23.6709 99.8398 23.2443 100.865 22.6679C102.443 21.7806 103.479 21.1975 104.092 20.2612C105.15 18.6428 104.202 17.0975 103.821 16.4769C103.662 16.2165 103.219 15.5486 102.299 14.8075C101.354 14.0461 100.443 13.6399 99.2361 13.0676C96.4347 11.7389 95.0339 11.0747 93.8135 10.2811C92.707 9.56184 91.4128 8.70423 90.5985 7.38542C90.1495 6.65826 90.0454 6.06317 89.8874 5.26458C89.6352 3.99029 89.4139 2.19269 89.5665 -0.045838"
                    fill="#FF8800" />
                <path
                    d="M95.8641 23.9999C95.1766 23.9999 94.9448 22.8886 95.54 22.5445C95.6085 22.5049 95.6772 22.4645 95.7459 22.4235C97.2967 21.4964 99.137 20.3964 99.3682 18.7668C99.4178 18.4168 99.4738 17.4748 98.6118 16.4769C98.0052 15.7748 97.1805 15.3186 96.3931 14.883C95.4786 14.3771 94.8239 14.1366 93.9193 13.7594C92.1444 13.0195 90.4341 12.3091 88.9326 11.286C87.1763 10.0893 86.4077 8.94505 86.2243 8.66014C85.4868 7.51424 85.4614 6.66334 85.3536 5.2393C85.2822 4.29704 85.1655 2.98336 84.9647 1.34966C84.8769 0.635535 85.43 -0.000117946 86.1495 -0.000117946H87.2134C87.2392 -0.000117946 87.2606 -0.0201358 87.2623 -0.0458984C87.1098 2.19269 87.3311 3.99029 87.5832 5.26452C87.7711 6.21394 87.9563 6.77213 88.2943 7.38536C89.1032 8.8524 90.4032 9.93752 91.342 10.5947C92.3054 11.2691 93.5081 11.8326 95.9135 12.9595C97.5244 13.7142 98.4258 14.0664 99.6385 14.8739C100.307 15.3191 100.982 15.7757 101.517 16.4769C101.77 16.8082 102.423 17.6902 102.273 18.7668C102.072 20.2213 100.517 21.2221 98.6512 22.4235C97.5184 23.1529 96.4528 23.6768 95.7441 23.9999"
                    fill="#00BFBA" />
                <path
                    d="M83.8264 22.2321C84.4222 22.9563 83.8839 24.0001 82.9461 24.0001H66.8722C65.1079 24.0001 63.5088 23.0398 62.3976 21.6694C62.3783 21.6456 62.3594 21.6224 62.3407 21.5995C62.0939 21.2978 59.9814 18.7325 59.9109 17.5014C59.8812 16.9835 60.2112 16.6673 60.2826 16.6015C60.3445 16.5445 60.5413 16.373 60.9868 16.1787C61.736 15.8521 62.5839 15.7248 63.2708 15.6716C64.3286 15.5898 64.9352 15.6932 66.7613 15.8638C67.1026 15.8957 67.411 15.9197 68.3697 15.9993C69.3574 16.0814 69.6204 16.101 69.8656 16.1218L69.8686 16.1221C69.9201 16.1266 73.0477 16.4001 75.8857 17.1611C75.9398 17.1756 75.9852 17.188 76.0218 17.1981C76.2247 17.254 76.4663 17.3147 76.7563 17.4113C77.3826 17.6198 79.8965 18.4256 81.9297 20.1497C82.5357 20.6636 82.9659 21.1864 83.8264 22.2321Z"
                    fill="#00BFBD" />
                <path
                    d="M82.334 2.13209C82.1395 0.833614 80.9322 0 79.6192 0H69.1761C67.5924 0 66.8023 2.28125 67.437 3.73217C69.1209 7.58112 65.6269 10.5022 68.6933 12.257C69.26 12.5813 70.1205 12.8386 71.8414 13.3531C74.4741 14.1403 75.767 14.2282 77.4126 14.6476C80.8008 15.5112 82.7416 17.0294 83.8507 17.8972C86.686 20.1153 86.4674 21.7211 88.8595 22.0974C90.1899 22.3066 91.4682 22.0004 92.0979 21.8495C92.377 21.7826 94.9323 21.1416 95.6496 19.5559C96.1963 18.347 95.3202 17.3731 95.0764 17.1122C94.619 16.6228 93.9766 16.3036 92.7104 15.6851C92.3442 15.5062 91.0949 14.9055 87.3996 13.5321C85.7931 12.935 85.7079 12.9292 85.3763 12.7379C84.9864 12.513 84.0757 11.9279 83.2599 10.1964C82.7909 9.20104 82.6254 8.40444 82.5545 8.02151C82.0861 5.49245 82.6941 4.53578 82.334 2.13209Z"
                    fill="#8E5B9C" />
                <path
                    d="M78.7321 2.13339C78.7971 0.828307 77.5154 0 76.2087 0H73.5587C71.7157 0 70.8096 2.24826 72.1326 3.53127C74.115 5.45387 74.9252 6.25451 75.8978 6.20504C76.9617 6.15092 77.5943 5.11115 78.0116 4.42529C78.3196 3.9188 78.6817 3.14484 78.7321 2.13339Z"
                    fill="#00CBC1" />
                <path
                    d="M75.0978 19.1357C78.7692 20.1677 77.1268 24.0001 73.3131 24.0001H68.3666C66.889 24.0001 65.3839 23.205 65.2588 21.7328C65.1643 20.6203 65.1001 19.8628 65.817 19.3097C67.2763 18.1838 71.3384 18.3944 73.6352 18.8025C74.1517 18.8943 74.6388 19.0067 75.0978 19.1357Z"
                    fill="#FF8800" />
                <path
                    d="M77.7423 22.5667C78.4381 23.0593 78.03 24.0001 77.1775 24.0001H70.6993C69.0689 24.0001 67.3793 22.6503 68.6073 21.5777C68.9368 21.2899 69.3631 21.0524 69.8698 20.8867C71.889 20.2261 74.3747 20.9685 74.9824 21.15C76.2949 21.5419 77.1045 22.1152 77.7423 22.5667Z"
                    fill="#009DB4" />
                <path
                    d="M72.5675 23.4525C72.0969 23.5306 72.2149 24 72.692 24H73.1632C73.8293 24 73.9399 23.4072 73.2739 23.3999C73.0347 23.3973 72.797 23.4144 72.5675 23.4525Z"
                    fill="#FF0058" />
                <path
                    d="M110.615 2.05902C109.867 0.695967 108.35 0 106.795 0H100.05C98.4397 0 96.7776 0.733734 96.35 2.28677C96.0059 3.53657 96.062 5.06362 97.5075 6.38678C98.5011 7.29622 100.445 8.37886 102.631 9.1359C104.114 9.64977 105.089 9.79885 106.873 10.5795C107.883 11.0217 108.963 11.4941 109.938 12.2774C110.255 12.5321 110.916 13.3689 112.225 15.032C112.732 15.6762 113.356 16.4767 114.705 16.8588C115.099 16.9705 115.393 17.0004 115.627 17.0048C116.982 17.0307 117.959 16.239 118.131 16.0991C119.379 15.088 118.813 13.8307 118.653 13.4766C118.309 12.7125 117.671 12.216 116.656 11.4259C115.288 10.3604 114.483 10.1402 113.693 9.17213C113.347 8.74741 113.199 8.41829 112.975 7.88798C112.079 5.76 111.647 4.37171 111.282 3.46341C111.125 3.07285 110.912 2.59991 110.615 2.05902Z"
                    fill="#FF0047" />
                <path
                    d="M107.9 4.15452C108.03 5.35927 106.775 6.88992 104.804 7.04674C102.867 7.20083 101.234 5.95024 100.803 5.61992C100.408 5.3173 99.5474 4.65859 99.5504 3.73034C99.5542 2.58383 100.874 1.22088 102.681 1.10803C103.694 1.04483 104.517 1.39577 105.274 1.71896C105.799 1.94321 107.751 2.77608 107.9 4.15452Z"
                    fill="#009BB3" />
            </g>
        </g>
        <path
            d="M23.8101 8.1414C22.8965 7.12599 21.6222 6.49756 20.1075 6.49756C16.7415 6.49756 14.1931 9.27764 14.1931 12.9523C14.1931 16.6269 16.7415 19.407 20.1075 19.407C21.6214 19.407 22.8886 18.7788 23.8101 17.7431V19.407H27.3202V19.1116V14.7172V6.78779H23.8101V8.1414ZM20.8048 15.9981C19.0977 15.9981 17.8236 14.6927 17.8236 12.9521C17.8236 11.2115 19.0979 9.90607 20.8048 9.90607C22.5358 9.90607 23.8101 11.2115 23.8101 12.9521C23.8101 14.6927 22.5358 15.9981 20.8048 15.9981Z"
            fill="#343537" />
        <path
            d="M34.7013 11.5258C33.1144 11.1631 32.4174 10.7764 32.4174 10.1963C32.4174 9.68869 32.9943 9.30172 33.6434 9.30172C34.3887 9.30172 34.9658 9.78524 34.9658 10.3655H38.4759C38.4759 8.21386 36.4323 6.49756 33.6434 6.49756C31.1431 6.49756 28.9312 7.87565 28.9312 10.4382C28.9312 12.4204 30.3015 13.7501 32.9462 14.3061C34.4366 14.5961 35.158 15.0313 35.158 15.6356C35.158 16.24 34.4849 16.6027 33.7875 16.6027C32.922 16.6027 32.2487 16.0465 32.2487 15.3697H28.7386C28.7386 17.5938 30.8303 19.4068 33.7634 19.4068C36.408 19.4068 38.6438 17.9322 38.6438 15.3213C38.6442 13.3632 37.3701 12.1302 34.7013 11.5258Z"
            fill="#343537" />
        <path
            d="M44.4151 3.54785H41.0973V5.77195C41.0973 6.44876 40.7608 6.78716 40.0875 6.78716H39.0537V10.0024H40.9049V15.1033C40.9049 17.7383 42.3956 19.1164 45.3287 19.1164H47.0836V15.9011H45.8574C44.9438 15.9011 44.4149 15.3935 44.4149 14.523V10.0024H47.0836V6.78716H44.4149L44.4151 3.54785Z"
            fill="#343537" />
        <path
            d="M51.9883 8.52831V6.78772H48.4781V19.1169H51.9883V13.3633C51.9883 11.4535 53.3107 10.2205 55.6908 10.2205V6.59424C54.2002 6.59424 52.9261 7.31962 51.9883 8.52831Z"
            fill="#343537" />
        <path
            d="M62.6394 6.49731C58.8647 6.49731 56.0277 9.27739 56.0277 12.952C56.0277 16.6267 58.8647 19.4068 62.6394 19.4068C66.414 19.4068 69.2508 16.6267 69.2508 12.952C69.2508 9.27759 66.4138 6.49731 62.6394 6.49731ZM62.6394 15.9981C60.9084 15.9981 59.634 14.6926 59.634 12.952C59.634 11.2115 60.9084 9.90602 62.6394 9.90602C64.3704 9.90602 65.6447 11.2115 65.6447 12.952C65.6445 14.6926 64.3702 15.9981 62.6394 15.9981Z"
            fill="#343537" />
        <path
            d="M108.733 6.78734V8.14115C107.822 7.12575 106.552 6.49731 105.041 6.49731C101.685 6.49731 99.1447 9.27739 99.1447 12.952C99.1447 16.6267 101.685 19.4068 105.041 19.4068C106.551 19.4068 107.814 18.7785 108.733 17.7428V19.4068H112.233V19.1114V14.7169V6.78754L108.733 6.78734ZM105.737 15.9981C104.035 15.9981 102.764 14.6926 102.764 12.952C102.764 11.2115 104.035 9.90602 105.737 9.90602C107.462 9.90602 108.733 11.2115 108.733 12.952C108.733 14.6926 107.462 15.9981 105.737 15.9981Z"
            fill="white" />
        <path
            d="M91.7853 14.717V11.0666C91.7853 8.3106 90.0115 6.49756 87.3507 6.49756C85.6248 6.49756 84.2345 7.22293 83.2998 8.62492C82.5567 7.29519 81.1904 6.49756 79.4405 6.49756C78.0263 6.49756 76.8518 7.05353 75.9648 8.09323V6.78779H72.4651V19.117H75.9648V12.1787C75.9648 10.8249 76.8997 9.90627 78.2659 9.90627C79.5364 9.90627 80.3753 10.8006 80.3753 12.1304V19.117H83.8749V12.1787C83.8749 10.8249 84.8097 9.90627 86.1761 9.90627C87.4466 9.90627 88.2854 10.8006 88.2854 12.1304V15.4907C88.2854 17.884 89.5559 19.117 92.0249 19.117H93.0076V15.7083H92.7678C92.1449 15.7081 91.7853 15.3454 91.7853 14.717Z"
            fill="white" />
        <path
            d="M96.0764 0.888916C94.8539 0.888916 93.9191 1.80758 93.9191 3.04036C93.9191 4.29743 94.8539 5.21609 96.0764 5.21609C97.3228 5.21609 98.2578 4.29743 98.2578 3.04036C98.2576 1.80758 97.3228 0.888916 96.0764 0.888916Z"
            fill="white" />
        <path d="M97.8261 6.78735H94.3266V19.1166H97.8261V6.78735Z" fill="white" />
        <path
            d="M5.58938 6.49731V6.50587C2.36431 6.67149 0 9.29531 0 12.7345C0 16.2881 2.52446 18.9957 5.91444 18.9957C7.42907 18.9957 8.70338 18.3914 9.617 17.376V17.7627C9.617 19.576 8.51096 20.7847 6.8041 20.7847C5.67411 20.7847 4.71239 20.3495 4.27963 19.6484H0.64933C1.41863 22.332 3.65465 23.9999 6.8041 23.9999C10.6027 23.9999 13.1271 21.5341 13.1271 17.787V8.42959V6.78734V6.49731H5.58938ZM6.61148 15.7805C4.88046 15.7805 3.60615 14.4751 3.60615 12.7345C3.60615 11.018 4.88046 9.68845 6.61148 9.68845C8.34249 9.68845 9.6168 11.018 9.6168 12.7345C9.6168 14.4751 8.34269 15.7805 6.61148 15.7805Z"
            fill="#343537" />
    </g>
    <defs>
        <filter id="filter0_f_991_1395" x="47.8197" y="-2.0459" width="89.0583" height="28.046"
            filterUnits="userSpaceOnUse" color-interpolation-filters="sRGB">
            <feFlood flood-opacity="0" result="BackgroundImageFix" />
            <feBlend mode="normal" in="SourceGraphic" in2="BackgroundImageFix" result="shape" />
            <feGaussianBlur stdDeviation="1" result="effect1_foregroundBlur_991_1395" />
        </filter>
        <clipPath id="clip0_991_1395">
            <rect width="114" height="24" fill="white" />
        </clipPath>
    </defs>
</svg>
    